# xmcd
#
# Track frame offsets:
# 182
# 15537
# 33242
# 47785
# 60697
# 80190
# 96735
# 109930
# 122422
# 137085
# 156122
# 179577
#
# Disc length: 2609 seconds
#
#
# Revision: 8
# Processed by: cddbd v1.4PL0 Copyright (c) Steve Scherf et al.
# Submitted via: FreeRIP 2.30 
#
DISCID=a60a2f0c
DTITLE=Royal Crown Revue - The Contender
DYEAR=1998
DGENRE=Jazz
TTITLE0=The Contender
TTITLE1=Walkin' Like Brando
TTITLE2=Zip Gun Bop (Reloaded)
TTITLE3=Big Boss Lee
TTITLE4=Friday the 13th
TTITLE5=Stormy Weather
TTITLE6=Morning Light
TTITLE7=Salt Peanuts
TTITLE8=Work Baby Work
TTITLE9=Everyone Knows You're Crazy
TTITLE10=Port-Au-Prince (Travels With Bettie Page)
TTITLE11=Deadly Nightcall
EXTD=LABEL =Warner Bros. Records Inc.\nID =947020-2\nUPC =none\nCOPYRIGHT =1998
EXTT0=
EXTT1=
EXTT2=
EXTT3=
EXTT4=
EXTT5=
EXTT6=
EXTT7=
EXTT8=
EXTT9=
EXTT10=
EXTT11=
PLAYORDER=
